<svg width="35" height="35" viewBox="0 0 50 50" fill="none" xmlns="http://www.w3.org/2000/svg">
<path d="M35.4167 43.75V29.1667C35.4167 28.6141 35.1972 28.0842 34.8065 27.6935C34.4158 27.3028 33.8859 27.0833 33.3333 27.0833H16.6667C16.1141 27.0833 15.5842 27.3028 15.1935 27.6935C14.8028 28.0842 14.5833 28.6141 14.5833 29.1667V43.75M14.5833 6.25V14.5833C14.5833 15.1359 14.8028 15.6658 15.1935 16.0565C15.5842 16.4472 16.1141 16.6667 16.6667 16.6667H31.25M31.6667 6.25C32.7657 6.26565 33.814 6.71494 34.5833 7.5L42.5 15.4167C43.2851 16.186 43.7343 17.2343 43.75 18.3333V39.5833C43.75 40.6884 43.311 41.7482 42.5296 42.5296C41.7482 43.311 40.6884 43.75 39.5833 43.75H10.4167C9.3116 43.75 8.25179 43.311 7.47039 42.5296C6.68899 41.7482 6.25 40.6884 6.25 39.5833V10.4167C6.25 9.3116 6.68899 8.25179 7.47039 7.47039C8.25179 6.68899 9.3116 6.25 10.4167 6.25H31.6667Z" stroke="#3EB942" stroke-width="4.16667" stroke-linecap="round" stroke-linejoin="round"/>
</svg>
